<svg height="512" viewBox="0 0 64 64" width="512" xmlns="http://www.w3.org/2000/svg"><g id="add-arrow-direction-button-pointer"><path d="m45 29h-9a1 1 0 0 1 -1-1v-9a3 3 0 0 0 -6 0v9a1 1 0 0 1 -1 1h-9a3 3 0 0 0 0 6h9a1 1 0 0 1 1 1v9a3 3 0 0 0 6 0v-9a1 1 0 0 1 1-1h9a3 3 0 0 0 0-6z"/><path d="m32 4a28 28 0 1 0 28 28 28.032 28.032 0 0 0 -28-28zm-2.079 2.082c.689-.054 1.389-.082 2.079-.082a1 1 0 0 1 0 2c-.638 0-1.284.025-1.921.076h-.08a1 1 0 0 1 -.078-2zm-21.921 25.918a1 1 0 0 1 -2 0 25.953 25.953 0 0 1 19.76-25.243 1 1 0 1 1 .48 1.943 23.959 23.959 0 0 0 -18.24 23.3zm37 5h-8v8a5 5 0 0 1 -10 0v-8h-8a5 5 0 0 1 0-10h8v-8a5 5 0 0 1 10 0v8h8a5 5 0 0 1 0 10z"/></g></svg>