<svg id="Capa_1" enable-background="new 0 0 512 512" height="512" viewBox="0 0 512 512" width="512" xmlns="http://www.w3.org/2000/svg"><g><path d="m509.794 376.53-25.021-24.993c-2.759-2.786-6.445-4.326-10.378-4.336-.013 0-.024 0-.037 0-3.933 0-7.628 1.53-10.408 4.311l-5.169 5.169c-9.115-10.301-10.269-18.284-11.577-27.351-1.475-10.224-3.147-21.812-16.399-35.064l-1.836-1.836c6.496-16.558 13.128-21.779 27.371-30.22 2.375-1.408 3.785-4.008 3.669-6.767-.115-2.759-1.738-5.231-4.224-6.436-18.367-8.897-29.785-21.242-33.938-36.692-5.152-19.17 1.939-39.205 10.295-51.562 1.543-2.282 1.711-5.226.438-7.668-1.272-2.442-3.781-3.99-6.535-4.032-42.21-.647-64.768-23.194-65.232-65.203-.029-2.583-1.385-4.969-3.588-6.316-2.204-1.346-4.946-1.466-7.257-.313-46.755 23.299-67.549 9.554-89.562-23.963-1.421-2.163-3.883-3.454-6.441-3.381-2.587.06-4.96 1.448-6.279 3.674-8.429 14.223-13.647 20.846-30.25 27.346-13.119-12.983-24.608-14.647-34.753-16.11-9.071-1.308-17.059-2.462-27.372-11.587l5.182-5.182c5.706-5.705 5.719-15.022-.002-20.802l-25.05-25.022c-2.931-2.925-7.676-2.925-10.604.004l-48.366 48.364c-2.929 2.929-2.929 7.678.001 10.606 2.928 2.928 7.677 2.929 10.606-.001l43.062-43.064 19.535 19.515-112.051 112.056-19.514-19.537 44.43-44.432c2.929-2.929 2.929-7.678-.001-10.606-2.928-2.928-7.677-2.929-10.606.001l-49.73 49.732c-2.928 2.928-2.929 7.674-.003 10.603l25.053 25.082c2.869 2.839 6.627 4.259 10.381 4.258 3.768 0 7.531-1.429 10.389-4.286l5.252-5.252c14.596 14.836 14.38 22.173 14.12 30.639-.27 8.754-.567 18.651 12.7 32.387-6.535 16.615-13.154 21.821-27.356 30.214-2.229 1.317-3.62 3.689-3.683 6.277-.062 2.588 1.215 5.024 3.377 6.446 33.505 22.032 47.252 42.836 23.993 89.6-1.15 2.312-1.03 5.052.317 7.254s3.732 3.557 6.314 3.586c42.008.466 64.554 23.023 65.2 65.234.042 2.755 1.592 5.265 4.035 6.537 2.445 1.273 5.389 1.102 7.67-.442 12.336-8.356 32.345-15.452 51.503-10.311 15.458 4.148 27.812 15.573 36.717 33.958 1.204 2.485 3.677 4.108 6.436 4.224.105.005.211.007.315.007 2.641 0 5.098-1.392 6.451-3.677 8.438-14.239 13.657-20.87 30.239-27.377l1.131 1.131c14.246 14.245 24.403 13.941 33.361 13.673 8.469-.258 15.8-.464 30.629 14.121l-5.237 5.237c-2.789 2.79-4.32 6.5-4.31 10.447.01 3.934 1.55 7.619 4.307 10.348l25.021 25.051c1.406 1.408 3.314 2.199 5.305 2.2h.002c1.989 0 3.896-.79 5.304-2.197l51.182-51.184c2.929-2.929 2.929-7.678-.001-10.606-2.928-2.928-7.677-2.929-10.606.001l-45.875 45.877-19.514-19.537 112.025-112.027 19.535 19.514-41.577 41.579c-2.929 2.929-2.929 7.678.001 10.606 2.928 2.928 7.677 2.929 10.606-.001l46.883-46.885c1.406-1.406 2.197-3.315 2.196-5.305.001-1.992-.79-3.9-2.197-5.306zm-445.914-231.9 80.811-80.813c14.002 12.658 25.545 14.328 35.849 15.815 9.418 1.358 16.856 2.432 26.562 12.138l46.627 46.628c2.108 2.107 3.27 4.931 3.27 7.948 0 2.888-1.074 5.59-3.01 7.662-.107.096-.217.186-.319.289-.184.184-.355.375-.516.572l-47.186 47.131c-3.263 3.259-6.673 5.327-9.8 6.122-.136.029-.271.062-.406.099-3.127.689-5.947.077-8.011-1.956-5.524-5.438-3.815-19.05 10.232-33.567.01-.011.021-.021.03-.031.905-.926 15.188-15.215 22.657-22.683 2.929-2.93 2.929-7.678 0-10.607-2.93-2.928-7.678-2.928-10.607 0-9.611 9.614-29.46 6.026-43.341-7.832-2.93-2.927-7.679-2.922-10.606.009-2.927 2.932-2.923 7.68.009 10.606 9.993 9.976 22.235 15.829 33.932 17.239-2.018 2.024-2.64 2.651-2.852 2.868l-.001-.001c-6.376 6.589-10.771 13.079-13.557 19.232-10.962-7.355-25.98-6.196-35.66 3.483-7.479 7.48-9.873 18.151-7.179 27.674-4.802.956-9.382 3.292-13.099 7.009-2.672 2.683-4.62 5.82-5.857 9.165l-17.402-17.403c-.218-.25-.454-.486-.707-.707l-2.082-2.082c-9.663-9.664-9.509-14.691-9.274-22.301.306-9.908.671-22.216-18.507-41.706zm180.93 88.612c-2.478 2.486-5.793 3.857-9.336 3.86-.004 0-.008 0-.012 0-3.527 0-6.83-1.355-9.306-3.818-.007-.007-.013-.013-.02-.02l-15.59-15.61c2.029-1.399 4.044-3.068 6.019-5.04l13.139-13.124 15.085 15.085c.003.003.007.006.01.009 5.146 5.129 5.151 13.499.011 18.658zm-69.306 44.17c-4.146 4.147-10.894 4.147-15.044-.002l-32.125-32.098c-4.136-4.152-4.136-10.91-.01-15.052 1.997-1.998 4.668-3.099 7.521-3.099 2.852 0 5.522 1.101 7.52 3.099l32.139 32.139c.001.001.003.003.005.004 4.062 4.07 4.061 10.942-.006 15.009zm-26.911-63.138c-5.151-5.152-5.151-13.535 0-18.687 5.15-5.153 13.534-5.152 18.669-.017l2.535 2.55c.028 7.806 2.875 14.351 7.43 18.835 4.082 4.019 9.807 6.44 16.201 6.44.528 0 1.062-.022 1.599-.055l20.491 20.517c.003.003.006.007.009.01.014.014.027.026.041.04 2.45 2.459 3.801 5.747 3.805 9.265.003 3.548-1.362 6.869-3.846 9.352-2.479 2.479-5.797 3.846-9.342 3.846s-6.862-1.366-9.342-3.845zm106.804-10.306-15.079-15.079 18.685-18.663 15.059 15.038c2.486 2.478 3.857 5.793 3.86 9.336s-1.361 6.86-3.842 9.341c-5.144 5.144-13.524 5.158-18.683.027zm-.033 234.868c-10.315-15.852-23.97-26.361-40.011-30.666-18.887-5.07-38.169-.839-52.88 6.162-2.236-19.35-9.159-34.926-20.653-46.417-11.683-11.68-27.549-18.602-47.266-20.644 8.93-21.222 10.719-38.664 5.679-54.273-4.407-13.651-13.863-25.565-30.176-37.769 9.475-6.641 15.896-13.663 21.446-25.536l41.529 41.53c.046.046.095.084.142.128l16.681 16.667c4.831 4.83 11.27 7.491 18.128 7.491s13.297-2.661 18.128-7.492c2.967-2.967 5.053-6.487 6.257-10.232 4.165 2.339 8.892 3.584 13.816 3.584 7.552 0 14.636-2.926 19.949-8.239 5.319-5.319 8.245-12.412 8.238-19.972-.001-.36-.008-.72-.021-1.078.369.015.739.021 1.111.021h.025c7.554-.007 14.638-2.944 19.947-8.272 5.768-5.788 8.499-13.472 8.198-21.052 7.567.311 15.277-2.454 21.056-8.231 5.316-5.317 8.241-12.406 8.234-19.961-.007-7.554-2.944-14.638-8.267-19.941l-15.809-15.787c2.055-3.791 3.15-8.063 3.15-12.511 0-7.024-2.721-13.614-7.662-18.556l-35.473-35.474c11.87-5.532 18.898-11.954 25.561-21.443 12.194 16.315 24.106 25.771 37.766 30.179 15.607 5.036 33.048 3.243 54.257-5.697 2.044 19.722 8.969 35.589 20.654 47.271 11.492 11.488 27.066 18.408 46.412 20.643-7.001 14.731-11.23 34.039-6.149 52.94 4.309 16.029 14.811 29.673 30.646 39.979-8.951 6.457-15.115 13.412-20.448 24.83l-33.381-33.383c-8.39-8.388-21.096-9.888-31.037-4.505l-15.819-15.82c-10.988-10.987-28.883-11.005-39.898-.027-5.782 5.782-8.524 13.473-8.228 21.063-7.588-.289-15.281 2.446-21.063 8.229-5.777 5.777-8.518 13.462-8.222 21.047-.372-.015-.745-.022-1.12-.022-7.552 0-14.637 2.927-19.95 8.239-9.137 9.138-10.684 23.035-4.641 33.785-3.746 1.204-7.27 3.29-10.236 6.257-4.838 4.818-7.502 11.255-7.502 18.123 0 6.869 2.664 13.306 7.491 18.113l16.82 16.82c.002.002.003.003.004.005l39.438 39.439c-11.435 5.34-18.394 11.504-24.851 20.455zm58.518-96.638 2.5 2.5c5.151 5.15 5.151 13.533.001 18.685-5.151 5.152-13.534 5.153-18.686 0l-37.48-37.481c-.003-.003-.006-.007-.009-.01 0 0 0 0-.001 0l-10.76-10.759c-5.151-5.152-5.151-13.535 0-18.686 2.479-2.48 5.798-3.847 9.343-3.847 3.543 0 6.858 1.365 9.337 3.841.002.002.003.004.005.005l20.522 20.522c-.435 7.035 2.045 13.382 6.398 17.802 4.485 4.554 11.029 7.399 18.83 7.428zm-39.678 44.551c-2.849 0-5.509-1.095-7.501-3.094l-15.319-15.319c-.002-.002-.004-.003-.005-.005l-16.83-16.83c-1.991-1.983-3.088-4.646-3.088-7.497s1.097-5.513 3.099-7.506c4.146-4.148 10.894-4.148 15.042 0l32.099 32.101c.003.003.006.007.009.01 4.147 4.146 4.147 10.895-.01 15.052-1.983 1.991-4.645 3.088-7.496 3.088zm25.181-91.342c-1.977 1.979-3.645 3.999-5.045 6.032l-15.6-15.6c-.001-.001-.003-.003-.005-.004-5.138-5.145-5.137-13.511.005-18.653 2.479-2.479 5.797-3.846 9.342-3.846s6.862 1.366 9.342 3.846c.003.003.007.006.01.009l15.076 15.076zm23.723-23.753-15.069-15.07c-.003-.003-.006-.007-.009-.01-5.151-5.15-5.151-13.533-.01-18.676 5.157-5.139 13.543-5.133 18.694.019l15.053 15.054zm2.559 157.948c-7.609.229-12.64.379-22.305-9.286l-20.176-20.177c3.398-1.265 6.508-3.249 9.131-5.883 3.711-3.712 6.045-8.289 7-13.088 9.52 2.692 20.19.299 27.672-7.181 9.671-9.672 10.835-24.676 3.499-35.635 6.149-2.785 12.634-7.18 19.216-13.556v-.001c.201-.196.794-.784 2.789-2.773.042.343.074.684.124 1.029 1.714 11.776 7.833 23.428 17.229 32.808 1.464 1.462 3.382 2.192 5.299 2.192 1.922 0 3.843-.734 5.308-2.201 2.927-2.932 2.923-7.681-.009-10.606-7.121-7.108-11.731-15.758-12.982-24.353-1.132-7.781.689-14.513 5.13-18.953 2.929-2.929 2.929-7.678-.001-10.606-2.928-2.928-7.677-2.929-10.606.001-.012.012-.023.025-.035.037l-.001-.001c-8.01 8.01-21.734 21.729-22.646 22.62-.011.011-.022.021-.033.032-8.528 8.261-16.745 12.249-23.174 13.009-.062.006-.125.017-.187.024-4.41.482-7.961-.568-10.169-2.81-2.01-2.042-2.631-4.82-1.986-7.902.064-.223.12-.448.163-.676.821-3.09 2.871-6.446 6.082-9.661l47.126-47.185c.199-.162.393-.336.578-.521.101-.101.19-.209.284-.314 4.395-4.104 11.302-4.027 15.583.255l46.627 46.629c9.726 9.727 10.801 17.173 12.161 26.602 1.486 10.3 3.156 21.838 15.804 35.827l-80.81 80.812c-19.478-19.159-31.774-18.808-41.685-18.508z"/></g></svg>